<?xml version="1.0" encoding="utf-8"?>
<!-- Generator: Adobe Illustrator 19.0.0, SVG Export Plug-In . SVG Version: 6.00 Build 0)  -->
<svg version="1.1" id="Layer_1" xmlns="http://www.w3.org/2000/svg" xmlns:xlink="http://www.w3.org/1999/xlink" x="0px" y="0px"
	 viewBox="0 0 800 200" style="enable-background:new 0 0 800 200;" xml:space="preserve">
<g id="XMLID_2_">
	<path id="XMLID_3_" d="M67.9,131.5c-4.6-2-8.2-4.9-10.7-8.7c-2.5-3.8-3.8-8.1-3.8-13.1v-1.5c0-0.6,0.2-1.1,0.6-1.5
		c0.4-0.4,0.9-0.6,1.5-0.6H70c0.6,0,1.1,0.1,1.5,0.4c0.4,0.3,0.6,0.6,0.6,1v1.4c0,2.4,1.2,4.6,3.7,6.5c2.5,1.9,5.6,2.9,9.5,2.9
		c3.3,0,5.8-0.7,7.4-2.2c1.6-1.4,2.4-3.1,2.4-5c0-2.1-0.9-3.8-2.8-4.9c-1.9-1.1-5.2-2.5-10-4l-2.5-0.8c-4.9-1.6-9.1-3.3-12.8-5.2
		c-3.6-1.9-6.8-4.4-9.3-7.8c-2.6-3.3-3.9-7.4-3.9-12.3c0-4.7,1.2-8.8,3.7-12.4c2.5-3.5,5.9-6.3,10.3-8.2c4.4-1.9,9.3-2.9,14.9-2.9
		c5.9,0,11.1,1.1,15.8,3.2c4.7,2.1,8.3,5.1,11,9c2.7,3.9,4,8.3,4,13.3v0.9c0,0.6-0.2,1.1-0.6,1.5c-0.4,0.4-0.9,0.6-1.5,0.6H96.9
		c-0.6,0-1.1-0.1-1.5-0.3c-0.4-0.2-0.6-0.5-0.6-0.9v-1c0-2.7-1.2-5-3.5-7.1c-2.4-2.1-5.5-3.1-9.5-3.1c-3,0-5.3,0.6-7,1.8
		c-1.7,1.2-2.5,2.9-2.5,5.1c0,1.7,0.5,3.1,1.6,4.2c1.1,1.1,2.7,2.1,5,3.1c2.2,1,5.7,2.2,10.3,3.7c5.3,1.8,9.5,3.4,12.4,4.8
		c3,1.4,5.8,3.6,8.4,6.7s3.9,7.1,3.9,12.1c0,4.8-1.3,9-3.8,12.6c-2.5,3.6-6,6.4-10.6,8.4c-4.6,2-9.8,3-15.7,3
		C77.8,134.5,72.5,133.5,67.9,131.5z"/>
	<path id="XMLID_5_" d="M179.7,104.4c0,5.4-0.8,10.2-2.4,14.4c-1.7,4.7-4.6,8.5-8.5,11.5c-3.9,2.9-8.3,4.4-13.2,4.4
		c-5.8,0-10.1-1.7-13-5.2c-0.2-0.3-0.4-0.4-0.6-0.3c-0.2,0.1-0.3,0.3-0.3,0.7v22.7c0,0.6-0.2,1.1-0.6,1.5c-0.4,0.4-0.9,0.6-1.5,0.6
		h-14.8c-0.6,0-1.1-0.2-1.5-0.6c-0.4-0.4-0.6-0.9-0.6-1.5V76.7c0-0.6,0.2-1.1,0.6-1.5c0.4-0.4,0.9-0.6,1.5-0.6h14.8
		c0.6,0,1.1,0.2,1.5,0.6c0.4,0.4,0.6,0.9,0.6,1.5v2.7c0,0.4,0.1,0.6,0.3,0.7c0.2,0.1,0.4,0,0.6-0.3c2.9-4,7.2-6,13-6
		c4.9,0,9.5,1.6,13.7,4.9c4.2,3.3,7,7.5,8.5,12.7C179.1,95,179.7,99.4,179.7,104.4z M159.4,104.1c0-3.9-0.6-7-1.9-9.5
		c-1.6-2.8-3.9-4.2-7-4.2c-2.9,0-5.1,1.4-6.7,4.3c-1.3,2.4-1.9,5.5-1.9,9.3c0,4.2,0.7,7.5,2.1,10c1.6,2.6,3.8,3.9,6.6,3.9
		c3,0,5.2-1.3,6.8-4C158.7,111.5,159.4,108.2,159.4,104.1z"/>
	<path id="XMLID_8_" d="M225,76.3c4.1,1.7,7.3,4.1,9.7,7.1c2.4,3,3.5,6.3,3.5,10v38.2c0,0.6-0.2,1.1-0.6,1.5
		c-0.4,0.4-0.9,0.6-1.5,0.6h-14.8c-0.6,0-1.1-0.2-1.5-0.6c-0.4-0.4-0.6-0.9-0.6-1.5v-2.3c0-0.4-0.1-0.6-0.3-0.7
		c-0.2-0.1-0.4,0-0.6,0.3c-3,3.7-7.9,5.6-14.7,5.6c-6,0-10.8-1.4-14.4-4.3c-3.6-2.9-5.4-7-5.4-12.6c0-5.9,2-10.4,6.1-13.6
		c4.1-3.2,9.9-4.8,17.6-4.8h10.8c0.5,0,0.8-0.3,0.8-0.8v-1.9c0-2.1-0.7-3.7-2-4.8c-1.3-1.2-3.2-1.8-5.6-1.8c-1.7,0-3.2,0.3-4.5,0.9
		c-1.3,0.6-2.1,1.4-2.7,2.3c-0.4,0.5-0.7,0.9-1.1,1.2c-0.3,0.3-0.8,0.4-1.3,0.3l-15.3-1.9c-1.4-0.2-2-0.7-1.8-1.6
		c0.4-3.3,1.7-6.2,4.1-8.8c2.4-2.6,5.5-4.7,9.3-6.2c3.8-1.5,8.2-2.3,12.9-2.3C216.4,73.7,220.9,74.6,225,76.3z M216.5,118.7
		c1.9-1.5,2.8-3.4,2.8-5.9v-2.5c0-0.5-0.3-0.8-0.8-0.8h-6.6c-2.9,0-5.1,0.5-6.7,1.5c-1.6,1-2.3,2.5-2.3,4.4c0,1.7,0.6,3,1.7,4
		c1.1,1,2.7,1.5,4.8,1.5C212.3,120.9,214.7,120.2,216.5,118.7z"/>
	<path id="XMLID_11_" d="M284.9,75.1c1,0.5,1.4,1.4,1.1,2.5l-2.5,14.6c-0.1,1-0.6,1.5-1.5,1.5c-0.4,0-0.7,0-0.9-0.1
		c-0.9-0.2-2.1-0.3-3.4-0.3c-1.2,0-2.1,0.1-2.7,0.2c-2.4,0.3-4.4,1.2-6,2.7c-1.6,1.5-2.5,3.5-2.5,6v29.3c0,0.6-0.2,1.1-0.6,1.5
		c-0.4,0.4-0.9,0.6-1.5,0.6h-14.8c-0.6,0-1.1-0.2-1.5-0.6c-0.4-0.4-0.6-0.9-0.6-1.5V76.7c0-0.6,0.2-1.1,0.6-1.5
		c0.4-0.4,0.9-0.6,1.5-0.6h14.8c0.6,0,1.1,0.2,1.5,0.6c0.4,0.4,0.6,0.9,0.6,1.5v2.5c0,0.4,0.1,0.6,0.3,0.7c0.2,0.1,0.4,0,0.5-0.3
		c3-3.8,6.9-5.7,11.6-5.7C281.4,73.8,283.4,74.3,284.9,75.1z"/>
	<path id="XMLID_13_" d="M326.4,117.3c2-0.7,3.7-1.7,5.1-2.9c0.5-0.5,0.9-0.8,1.5-0.8c0.5,0,0.9,0.3,1.4,0.8l7.1,8.4
		c0.5,0.5,0.7,1,0.7,1.5c0,0.5-0.2,1-0.7,1.5c-2.6,2.7-5.9,4.9-9.8,6.4c-4,1.5-8.2,2.3-12.7,2.3c-5.2,0-9.7-0.9-13.7-2.8
		c-4-1.9-7.3-4.5-9.9-7.8c-4.2-5.3-6.3-12.1-6.3-20.3c0-3.6,0.4-7.1,1.3-10.3c1.7-5.9,4.9-10.7,9.8-14.3c4.9-3.6,10.6-5.4,17.1-5.4
		c7.6,0,13.7,2.4,18.4,7.1c4.7,4.7,7.7,11.3,9.2,19.7c0.3,2.1,0.5,4.4,0.7,7c0,1.4-0.7,2.1-2.1,2.1h-34.4c-0.2,0-0.4,0.1-0.6,0.2
		c-0.2,0.2-0.2,0.4-0.2,0.7l0.7,2.3c0.8,1.8,2.1,3.2,4,4.3c1.9,1,4.2,1.5,7,1.5C322.2,118.4,324.4,118.1,326.4,117.3z M309.1,95.5
		c-0.3,0.8-0.5,1.3-0.6,1.7v0.2c0,0.5,0.3,0.7,0.8,0.7h15.6c0.3,0,0.5-0.1,0.6-0.3c0.1-0.2,0.1-0.4,0.1-0.6l-0.5-1.5
		c-0.6-1.8-1.6-3.2-3-4.3s-3.1-1.5-5.2-1.5C313,89.9,310.4,91.8,309.1,95.5z"/>
	<path id="XMLID_16_" d="M401.7,57c4,2.1,7.1,5.1,9.2,8.9c2.2,3.8,3.2,8.3,3.2,13.3c0,4.9-1.1,9.3-3.4,13.1
		c-2.2,3.8-5.4,6.7-9.5,8.8c-4.1,2.1-8.9,3.1-14.3,3.1h-13.7c-0.5,0-0.8,0.3-0.8,0.8v26.6c0,0.6-0.2,1.1-0.6,1.5
		c-0.4,0.4-0.9,0.6-1.5,0.6h-14.8c-0.6,0-1.1-0.2-1.5-0.6c-0.4-0.4-0.6-0.9-0.6-1.5V55.8c0-0.6,0.2-1.1,0.6-1.5
		c0.4-0.4,0.9-0.6,1.5-0.6h32.3C393.1,53.8,397.7,54.8,401.7,57z M392.4,86.5c1.9-1.7,2.9-4,2.9-6.8c0-2.9-1-5.2-2.9-7
		c-1.9-1.8-4.5-2.7-7.6-2.7h-11.5c-0.5,0-0.8,0.3-0.8,0.8v17.6c0,0.5,0.3,0.8,0.8,0.8h11.5C388,89.1,390.5,88.2,392.4,86.5z"/>
	<path id="XMLID_19_" d="M458.7,76.3c4.1,1.7,7.3,4.1,9.7,7.1c2.4,3,3.5,6.3,3.5,10v38.2c0,0.6-0.2,1.1-0.6,1.5
		c-0.4,0.4-0.9,0.6-1.5,0.6h-14.8c-0.6,0-1.1-0.2-1.5-0.6c-0.4-0.4-0.6-0.9-0.6-1.5v-2.3c0-0.4-0.1-0.6-0.3-0.7
		c-0.2-0.1-0.4,0-0.6,0.3c-3,3.7-7.9,5.6-14.7,5.6c-6,0-10.8-1.4-14.4-4.3c-3.6-2.9-5.4-7-5.4-12.6c0-5.9,2-10.4,6.1-13.6
		c4.1-3.2,9.9-4.8,17.6-4.8h10.8c0.5,0,0.8-0.3,0.8-0.8v-1.9c0-2.1-0.7-3.7-2-4.8c-1.3-1.2-3.2-1.8-5.6-1.8c-1.8,0-3.3,0.3-4.5,0.9
		c-1.3,0.6-2.1,1.4-2.7,2.3c-0.4,0.5-0.7,0.9-1.1,1.2c-0.3,0.3-0.8,0.4-1.3,0.3l-15.3-1.9c-1.4-0.2-2-0.7-1.8-1.6
		c0.4-3.3,1.7-6.2,4.1-8.8c2.4-2.6,5.5-4.7,9.3-6.2c3.8-1.5,8.2-2.3,12.9-2.3C450.1,73.7,454.6,74.6,458.7,76.3z M450.2,118.7
		c1.9-1.5,2.8-3.4,2.8-5.9v-2.5c0-0.5-0.3-0.8-0.8-0.8h-6.6c-2.9,0-5.1,0.5-6.7,1.5c-1.6,1-2.3,2.5-2.3,4.4c0,1.7,0.6,3,1.7,4
		c1.1,1,2.7,1.5,4.8,1.5C446,120.9,448.4,120.2,450.2,118.7z"/>
	<path id="XMLID_22_" d="M518.6,75.1c1,0.5,1.4,1.4,1.1,2.5l-2.5,14.6c-0.1,1-0.6,1.5-1.5,1.5c-0.4,0-0.7,0-0.9-0.1
		c-0.9-0.2-2.1-0.3-3.4-0.3c-1.2,0-2.1,0.1-2.7,0.2c-2.4,0.3-4.4,1.2-6,2.7c-1.6,1.5-2.5,3.5-2.5,6v29.3c0,0.6-0.2,1.1-0.6,1.5
		c-0.4,0.4-0.9,0.6-1.5,0.6h-14.8c-0.6,0-1.1-0.2-1.5-0.6c-0.4-0.4-0.6-0.9-0.6-1.5V76.7c0-0.6,0.2-1.1,0.6-1.5
		c0.4-0.4,0.9-0.6,1.5-0.6h14.8c0.6,0,1.1,0.2,1.5,0.6c0.4,0.4,0.6,0.9,0.6,1.5v2.5c0,0.4,0.1,0.6,0.3,0.7c0.2,0.1,0.4,0,0.5-0.3
		c3-3.8,6.9-5.7,11.6-5.7C515.1,73.8,517.1,74.3,518.6,75.1z"/>
	<path id="XMLID_24_" d="M561.9,89.2c-0.4,0.4-0.9,0.6-1.5,0.6H551c-0.5,0-0.8,0.3-0.8,0.8v20c0,4.3,1.7,6.5,5.2,6.5h3.5
		c0.6,0,1.1,0.2,1.5,0.6c0.4,0.4,0.6,0.9,0.6,1.5v12c0,1.2-0.6,1.9-1.9,2.1c-3.5,0.2-6,0.2-7.4,0.2c-6.6,0-11.5-1.1-14.7-3.2
		c-3.2-2.1-4.8-6.1-4.9-11.9V90.6c0-0.5-0.3-0.8-0.8-0.8h-5.6c-0.6,0-1.1-0.2-1.5-0.6c-0.4-0.4-0.6-0.9-0.6-1.5V76.7
		c0-0.6,0.2-1.1,0.6-1.5c0.4-0.4,0.9-0.6,1.5-0.6h5.6c0.5,0,0.8-0.3,0.8-0.8V61c0-0.6,0.2-1.1,0.6-1.5c0.4-0.4,0.9-0.6,1.5-0.6h14
		c0.6,0,1.1,0.2,1.5,0.6c0.4,0.4,0.6,0.9,0.6,1.5v12.9c0,0.5,0.3,0.8,0.8,0.8h9.5c0.6,0,1.1,0.2,1.5,0.6c0.4,0.4,0.6,0.9,0.6,1.5
		v11.1C562.5,88.4,562.3,88.9,561.9,89.2z"/>
	<path id="XMLID_26_" d="M581.1,132.3c-4-1.5-7.1-3.6-9.2-6.3c-2.2-2.7-3.2-5.8-3.2-9.3v-0.6c0-0.6,0.2-1.1,0.6-1.5
		c0.4-0.4,0.9-0.6,1.5-0.6h14c1.4,0,2.1,0.2,2.1,0.7v0.7c0,1.4,0.8,2.6,2.3,3.6c1.6,1,3.6,1.4,6,1.4c2.1,0,3.8-0.4,5.1-1.1
		c1.3-0.7,1.9-1.7,1.9-2.9c0-1.2-0.7-2.1-2.1-2.7c-1.4-0.6-3.5-1.1-6.5-1.7c-4.8-0.9-8.7-2-11.6-3.3c-3.8-1.6-6.9-3.6-9.2-6
		c-2.3-2.4-3.5-5.7-3.5-9.8c0-5.9,2.3-10.6,6.9-14.1c4.6-3.5,10.7-5.2,18.2-5.2c5.1,0,9.6,0.8,13.4,2.5c3.8,1.6,6.8,3.9,8.9,6.9
		c2.1,3,3.2,6.4,3.2,10.3c0,0.4-0.2,0.7-0.6,1c-0.4,0.3-0.9,0.4-1.5,0.4h-13.6c-1.4,0-2.1-0.2-2.1-0.7v-0.7c0-1.4-0.7-2.6-2.1-3.5
		s-3.2-1.4-5.6-1.4c-2.1,0-3.9,0.4-5.2,1.1c-1.3,0.7-2,1.7-2,3c0,1.3,0.7,2.2,2.2,2.8c1.4,0.6,3.9,1.2,7.3,1.9
		c4.6,0.9,7.8,1.6,9.3,2.2c4.6,1.5,8.3,3.6,10.9,6.2c2.6,2.6,3.9,6,3.9,10.4c0,5.9-2.3,10.5-7,13.7c-4.7,3.2-11,4.8-18.9,4.8
		C589.8,134.5,585.1,133.8,581.1,132.3z"/>
	<path id="XMLID_28_" d="M682.2,107c0,4-0.8,7.9-2.3,11.5c-2,4.9-5.2,8.8-9.7,11.7c-4.5,2.8-9.8,4.3-15.8,4.3
		c-5.9,0-11.2-1.5-15.7-4.4c-4.6-2.9-7.9-6.9-9.9-11.9c-1.1-2.7-1.8-5.9-1.9-9.3v-0.2c0-1.2,0.6-1.8,1.9-1.8h15
		c1.2,0,1.9,0.6,2.1,1.9c0.3,2.1,0.8,3.8,1.4,4.9c1.3,3,3.7,4.6,7.2,4.6c3.3,0,5.7-1.4,7.1-4.2c1.1-2.1,1.7-4.6,1.7-7.5
		c0-2.9-0.6-5.5-1.7-8c-1.6-2.9-4-4.3-7.2-4.3c-0.8,0-1.7,0.2-2.6,0.7c-0.9,0.5-2.1,1.2-3.5,2.2c-0.4,0.3-0.8,0.5-1.4,0.5
		c-0.6,0-1.1-0.3-1.6-0.9l-7.3-10.3c-0.3-0.6-0.5-1-0.5-1.3c0-0.6,0.3-1.1,0.9-1.6L654.9,71c0.3-0.2,0.4-0.5,0.3-0.7
		c-0.1-0.2-0.3-0.3-0.7-0.3h-23.9c-0.6,0-1.1-0.2-1.5-0.6c-0.4-0.4-0.6-0.9-0.6-1.5V55.8c0-0.6,0.2-1.1,0.6-1.5
		c0.4-0.4,0.9-0.6,1.5-0.6H679c0.6,0,1.1,0.2,1.5,0.6c0.4,0.4,0.6,0.9,0.6,1.5v13.7c0,1-0.4,1.8-1.3,2.5l-13.2,10.6
		c-0.2,0.1-0.2,0.2-0.2,0.5c0,0.3,0.2,0.5,0.7,0.7c5.9,1.6,10.1,5.4,12.9,11.5C681.4,98.8,682.2,102.7,682.2,107z"/>
	<path id="XMLID_30_" d="M692.3,133c-0.4-0.4-0.6-0.9-0.6-1.5V55.8c0-0.6,0.2-1.1,0.6-1.5c0.4-0.4,0.9-0.6,1.5-0.6h28.4
		c5.9,0,11.2,1,15.7,3.1c4.6,2.1,8.1,5,10.6,8.8c2.5,3.8,3.8,8.2,3.8,13.1v29.9c0,4.9-1.3,9.3-3.8,13.1c-2.5,3.8-6,6.7-10.6,8.8
		c-4.6,2.1-9.8,3.1-15.7,3.1h-28.4C693.2,133.6,692.7,133.4,692.3,133z M711.5,117.4H723c3,0,5.5-1.1,7.4-3.2c1.9-2.2,2.9-5.1,3-8.7
		V81.9c0-3.6-1-6.6-2.9-8.7c-1.9-2.2-4.5-3.2-7.6-3.2h-11.4c-0.5,0-0.8,0.3-0.8,0.8v45.8C710.7,117.1,710.9,117.4,711.5,117.4z"/>
</g>
<g id="XMLID_1_">
</g>
<g id="XMLID_33_">
</g>
<g id="XMLID_34_">
</g>
<g id="XMLID_35_">
</g>
<g id="XMLID_36_">
</g>
<g id="XMLID_37_">
</g>
</svg>
