<svg xmlns="http://www.w3.org/2000/svg" width="278.551" height="278.55" viewBox="0 0 278.551 278.55"><g><path d="M92.845 225.466l-.182-.132c-.205-.152-.401-.312-.591-.477l-.182-.16c-.18-.165-.352-.335-.518-.51l-.176-.189c-.155-.173-.302-.352-.443-.533l-.173-.225c-.128-.176-.249-.354-.365-.537l-.172-.273-.282-.518-.172-.34-.201-.469-.168-.428-.124-.39-.156-.536-.061-.281c-.049-.221-.095-.441-.128-.666l-.018-.144c-.286-2.104.087-4.312 1.229-6.29l7.848-13.586c-.863-.834-1.711-1.668-2.525-2.53-.986-.942-1.959-1.905-2.893-2.917-1.006-.933-1.974-1.905-2.911-2.878-.289-.274-.563-.565-.848-.845l-.555-.552c-.582-.583-1.159-1.171-1.722-1.772-.256-.271-.504-.552-.755-.828-.488-.538-.978-1.076-1.451-1.629-.351-.408-.688-.829-1.029-1.245-.366-.446-.74-.888-1.096-1.344-.698-.892-1.379-1.798-2.037-2.722l-.03-.043c-.28-.393-.554-.791-.825-1.189l-.232-.338-.666-1.012-.354-.543-.552-.885-.429-.696-.468-.791-.473-.812-.406-.727-.495-.901-.356-.677-.503-.973-.318-.641-.501-1.032-.287-.614c-.166-.357-.33-.717-.49-1.078l-.262-.6-.472-1.109-.244-.598c-.152-.377-.302-.755-.447-1.135l-.227-.594-.423-1.157-.21-.596c-.135-.39-.267-.781-.396-1.173l-.195-.602c-.125-.393-.246-.788-.365-1.184l-.182-.612c-.115-.396-.227-.794-.335-1.192l-.169-.623c-.104-.396-.204-.796-.302-1.195l-.156-.638c-.094-.397-.182-.796-.27-1.195l-.144-.657c-.083-.396-.159-.793-.236-1.191l-.13-.676c-.072-.395-.139-.792-.204-1.189l-.115-.693-.172-1.185-.1-.714-.141-1.189-.083-.72c-.041-.397-.075-.798-.109-1.198l-.065-.727c-.031-.412-.056-.826-.081-1.24l-.044-.692c-.023-.446-.038-.894-.053-1.341l-.023-.606c-.017-.65-.025-1.302-.025-1.956 0-41.152 33.343-74.466 74.45-74.466.653 0 1.305.009 1.954.025l.776.029 1.159.046 1 .063.915.06 1.154.103.741.067c.427.044.852.095 1.276.146l.598.07c.463.059.925.126 1.386.193l.467.068c.499.076.996.161 1.491.247l.338.058c.532.095 1.062.198 1.59.304l.218.043c.564.115 1.127.238 1.687.367l.096.021c13.591 3.141 25.753 10.003 35.363 19.453l.521.513.317.326c.35.355.696.711 1.039 1.073l6.978 6.923 2.022-6.492 11.723-6.748 3.653-2.151 11.712-6.767 45.7 45.708c-11.207-65.674-68.397-115.673-137.272-115.673-76.92 0-139.275 62.355-139.275 139.275s62.355 139.275 139.275 139.275c2.209 0 4.405-.058 6.59-.159l-52.715-52.703-.305-.222z" fill="#26B0B2"/><path d="M276.551 115.678l-45.7-45.708-3.157 10.192c2.277-.081 4.529 1.058 5.745 3.155 1.23 2.125 1.1 4.65-.121 6.571l10.38 2.337-11.712 6.767-3.678 2.151-11.713 6.717-7.882-1.774c4.127 9.257 6.424 19.511 6.424 30.307 0 25.423-12.755 47.877-32.216 61.312l8.468 14.664c2.739 4.744 1.109 10.824-3.64 13.594-1.561.895-3.256 1.307-4.935 1.307-3.452 0-6.776-1.759-8.618-4.95l-9.01-15.606c-7.676 2.676-15.922 4.135-24.511 4.135-8.587 0-16.833-1.46-24.509-4.138l-9.012 15.609c-1.836 3.152-5.161 4.95-8.593 4.95-1.68 0-3.398-.412-4.955-1.307-.266-.154-.518-.323-.763-.497l.306.222 52.715 52.703c73.858-3.441 132.686-64.406 132.686-139.116.001-8.045-.691-15.926-1.999-23.597z" fill="#189092"/><path d="M88.635 189.613c.284.279.559.57.848.845.938.973 1.905 1.945 2.911 2.878.934 1.012 1.906 1.975 2.893 2.917.814.862 1.662 1.696 2.525 2.53l.626-1.084c-3.498-2.415-6.774-5.125-9.803-8.086zM203.763 85.635l-2.022 6.492-6.978-6.923c2.391 2.525 4.608 5.217 6.63 8.058l2.37-7.627z" fill="#20AAAB"/><path d="M174.196 222.319c1.842 3.191 5.166 4.95 8.618 4.95 1.679 0 3.374-.412 4.935-1.307 4.749-2.77 6.379-8.85 3.64-13.594l-8.468-14.664c-5.433 3.75-11.388 6.796-17.734 9.008l9.009 15.607zM97.812 198.783l-7.848 13.586c-1.143 1.978-1.516 4.186-1.229 6.29l.018.144c.033.225.079.445.128.666l.061.281.156.536.124.39.168.428.201.469.172.34.282.518.172.273c.116.183.237.361.365.537l.173.225c.142.182.288.36.443.533l.176.189c.166.175.338.345.518.51l.182.16c.189.165.386.324.591.477l.182.132c.245.174.497.343.763.497 1.557.895 3.275 1.307 4.955 1.307 3.432 0 6.757-1.798 8.593-4.95l9.012-15.609c-6.345-2.213-12.298-5.26-17.729-9.011l-.629 1.082z" fill="#2C414F"/><path d="M81.109 136.393c0-32.902 26.675-59.558 59.566-59.558v-14.908c-41.107 0-74.45 33.314-74.45 74.466 0 .654.009 1.306.025 1.956l.023.606c.015.448.029.896.053 1.341l.044.692c.025.414.05.828.081 1.24l.065.727c.034.4.068.801.109 1.198l.083.72c.045.397.09.795.141 1.189l.1.714.172 1.185.115.693c.065.397.132.795.204 1.189l.13.676c.077.398.153.795.236 1.191l.144.657c.088.399.176.798.27 1.195l.156.638c.098.399.197.799.302 1.195l.169.623c.108.398.22.797.335 1.192l.182.612c.119.396.24.791.365 1.184l.195.602c.129.392.261.783.396 1.173l.21.596.423 1.157.227.594c.146.38.295.758.447 1.135l.244.598c.154.371.312.74.472 1.109l.262.6c.16.361.324.721.49 1.078l.287.614.501 1.032.318.641.503.973.356.677.495.901.406.727.473.812.468.791.429.696.552.885.354.543.666 1.012.232.338c.271.398.545.797.825 1.189l.03.043c.658.924 1.339 1.83 2.037 2.722.355.456.729.897 1.096 1.344.342.416.679.837 1.029 1.245.474.553.963 1.091 1.451 1.629.251.276.499.557.755.828.562.602 1.14 1.189 1.722 1.772l.555.552c3.029 2.961 6.306 5.671 9.803 8.086 5.432 3.751 11.385 6.798 17.729 9.011 7.676 2.678 15.922 4.138 24.509 4.138v-14.908c-32.892-.002-59.567-26.668-59.567-59.548z" fill="#F96A48"/><path d="M95.993 136.393c0-24.682 20.007-44.688 44.683-44.688v-14.87c-32.892 0-59.566 26.656-59.566 59.558 0 32.881 26.675 59.547 59.566 59.547v-14.871c-24.676-.001-44.683-19.996-44.683-44.676z" fill="#EBEDEF"/><path d="M95.993 136.393c0 24.681 20.007 44.676 44.683 44.676v-14.909c-16.446 0-29.773-13.338-29.773-29.768 0-16.471 13.327-29.789 29.773-29.789v-14.898c-24.676 0-44.683 20.006-44.683 44.688z" fill="#F96A48"/><path d="M110.902 136.393c0 16.43 13.327 29.768 29.773 29.768v-14.869c-8.21 0-14.884-6.688-14.884-14.898 0-8.221 6.674-14.91 14.884-14.91v-14.879c-16.446-.001-29.773 13.317-29.773 29.788z" fill="#EBEDEF"/><path d="M125.792 136.393c0 8.211 6.674 14.898 14.884 14.898v-8.084c-2.18-.012-4.298-1.146-5.476-3.182-1.748-3.015-.692-6.924 2.338-8.672l3.138-1.812v-8.06c-8.21.001-14.884 6.691-14.884 14.912z" fill="#E05B49"/><path d="M140.676 181.068v14.871c32.901 0 59.592-26.666 59.592-59.547 0-8.444-1.762-16.475-4.932-23.75l-13.027 7.523c1.962 5.031 3.05 10.5 3.05 16.227-.001 24.681-20.002 44.676-44.683 44.676zM140.676 76.835v14.87c14.407 0 27.212 6.825 35.382 17.41l12.994-7.502c-10.822-15.008-28.459-24.778-48.376-24.778zM140.676 151.291v14.869c16.466 0 29.793-13.338 29.793-29.768 0-3.011-.449-5.914-1.277-8.652l-13.628 7.87c.014.259.021.52.021.782 0 8.212-6.674 14.899-14.909 14.899zM140.676 106.604v14.879c3.326 0 6.396 1.092 8.877 2.935l13.441-7.761c-5.457-6.166-13.428-10.053-22.318-10.053z" fill="#BCC3C7"/><path d="M195.336 112.642c3.17 7.276 4.932 15.306 4.932 23.75 0 32.881-26.69 59.547-59.592 59.547v14.908c8.589 0 16.835-1.459 24.511-4.135 6.347-2.212 12.302-5.258 17.734-9.008 19.461-13.436 32.216-35.89 32.216-61.312 0-10.796-2.297-21.05-6.424-30.307l-1.456-.328-11.921 6.885zM189.052 101.612l11.876-6.856.465-1.494c-2.021-2.841-4.239-5.533-6.63-8.058-.343-.362-.689-.718-1.039-1.073l-.317-.326-.521-.513c-9.61-9.45-21.772-16.312-35.363-19.453l-.096-.021c-.56-.128-1.122-.251-1.687-.367l-.218-.043c-.528-.106-1.058-.209-1.59-.304l-.338-.058c-.495-.086-.992-.17-1.491-.247l-.467-.068c-.461-.067-.923-.134-1.386-.193l-.598-.07c-.425-.051-.85-.103-1.276-.146l-.741-.067-1.154-.103-.915-.06-1-.063-1.159-.046-.776-.029c-.649-.017-1.301-.025-1.954-.025v14.908c19.916-.002 37.553 9.768 48.375 24.775zM140.676 166.16v14.908c24.682 0 44.683-19.995 44.683-44.676 0-5.727-1.088-11.196-3.05-16.227l-13.117 7.575c.828 2.738 1.277 5.642 1.277 8.652 0 16.43-13.327 29.768-29.793 29.768zM140.676 91.705v14.899c8.891 0 16.861 3.887 22.318 10.053l13.063-7.542c-8.169-10.586-20.974-17.41-35.381-17.41z" fill="#D85A41"/><path d="M140.676 129.542l8.877-5.125c-2.48-1.843-5.551-2.935-8.877-2.935v8.06zM155.585 136.393c0-.263-.008-.523-.021-.782l-11.677 6.743c-1.012.59-2.119.86-3.211.854v8.084c8.235-.001 14.909-6.688 14.909-14.899z" fill="#BD3E25"/><path d="M231.116 91.979l-23.859 13.779 1.456.328 7.882 1.774 11.713-6.717 3.678-2.151 11.712-6.767-10.38-2.337c-.535.84-1.273 1.566-2.202 2.091zM215.485 78.888l-11.723 6.748-2.37 7.626-.465 1.494 23.844-13.766c.922-.526 1.925-.792 2.922-.828l3.157-10.192-11.712 6.767-3.653 2.151z" fill="#EBEDEF"/><path d="M200.928 94.756l-11.876 6.856-12.994 7.502-13.063 7.542-13.441 7.761-8.877 5.125-3.138 1.812c-3.03 1.748-4.086 5.657-2.338 8.672 1.178 2.035 3.296 3.17 5.476 3.182 1.092.007 2.199-.264 3.211-.854l11.677-6.743 13.628-7.87 13.117-7.575 13.027-7.523 11.921-6.884 23.859-13.779c.929-.525 1.667-1.251 2.201-2.091 1.221-1.921 1.352-4.446.121-6.571-1.216-2.098-3.468-3.236-5.745-3.155-.997.035-2 .301-2.922.828l-23.844 13.765z" fill="#2C414F"/></g></svg>